<svg width="25" height="25" viewBox="0 0 25 25" fill="none" xmlns="http://www.w3.org/2000/svg">
<path d="M8.07291 2.60413C8.07291 2.39693 7.9906 2.19821 7.84409 2.0517C7.69757 1.90519 7.49886 1.82288 7.29166 1.82288C7.08446 1.82288 6.88575 1.90519 6.73923 2.0517C6.59272 2.19821 6.51041 2.39693 6.51041 2.60413V4.24996C5.01041 4.36975 4.02708 4.6635 3.30416 5.38746C2.5802 6.11038 2.28645 7.09475 2.16562 8.59371H22.8344C22.7135 7.09371 22.4198 6.11038 21.6958 5.38746C20.9729 4.6635 19.9885 4.36975 18.4896 4.24892V2.60413C18.4896 2.39693 18.4073 2.19821 18.2608 2.0517C18.1142 1.90519 17.9155 1.82288 17.7083 1.82288C17.5011 1.82288 17.3024 1.90519 17.1559 2.0517C17.0094 2.19821 16.9271 2.39693 16.9271 2.60413V4.18017C16.2344 4.16663 15.4573 4.16663 14.5833 4.16663H10.4167C9.5427 4.16663 8.76562 4.16663 8.07291 4.18017V2.60413Z" fill="#05564B"/>
<path fill-rule="evenodd" clip-rule="evenodd" d="M2.08333 12.5C2.08333 11.626 2.08333 10.849 2.09687 10.1562H22.9031C22.9167 10.849 22.9167 11.626 22.9167 12.5V14.5833C22.9167 18.5115 22.9167 20.476 21.6958 21.6958C20.476 22.9167 18.5115 22.9167 14.5833 22.9167H10.4167C6.48854 22.9167 4.52395 22.9167 3.30416 21.6958C2.08333 20.476 2.08333 18.5115 2.08333 14.5833V12.5ZM17.7083 14.5833C17.9846 14.5833 18.2495 14.4736 18.4449 14.2782C18.6403 14.0829 18.75 13.8179 18.75 13.5417C18.75 13.2654 18.6403 13.0004 18.4449 12.8051C18.2495 12.6097 17.9846 12.5 17.7083 12.5C17.4321 12.5 17.1671 12.6097 16.9718 12.8051C16.7764 13.0004 16.6667 13.2654 16.6667 13.5417C16.6667 13.8179 16.7764 14.0829 16.9718 14.2782C17.1671 14.4736 17.4321 14.5833 17.7083 14.5833ZM17.7083 18.75C17.9846 18.75 18.2495 18.6403 18.4449 18.4449C18.6403 18.2496 18.75 17.9846 18.75 17.7083C18.75 17.4321 18.6403 17.1671 18.4449 16.9718C18.2495 16.7764 17.9846 16.6667 17.7083 16.6667C17.4321 16.6667 17.1671 16.7764 16.9718 16.9718C16.7764 17.1671 16.6667 17.4321 16.6667 17.7083C16.6667 17.9846 16.7764 18.2496 16.9718 18.4449C17.1671 18.6403 17.4321 18.75 17.7083 18.75ZM13.5417 13.5417C13.5417 13.8179 13.4319 14.0829 13.2366 14.2782C13.0412 14.4736 12.7763 14.5833 12.5 14.5833C12.2237 14.5833 11.9588 14.4736 11.7634 14.2782C11.5681 14.0829 11.4583 13.8179 11.4583 13.5417C11.4583 13.2654 11.5681 13.0004 11.7634 12.8051C11.9588 12.6097 12.2237 12.5 12.5 12.5C12.7763 12.5 13.0412 12.6097 13.2366 12.8051C13.4319 13.0004 13.5417 13.2654 13.5417 13.5417ZM13.5417 17.7083C13.5417 17.9846 13.4319 18.2496 13.2366 18.4449C13.0412 18.6403 12.7763 18.75 12.5 18.75C12.2237 18.75 11.9588 18.6403 11.7634 18.4449C11.5681 18.2496 11.4583 17.9846 11.4583 17.7083C11.4583 17.4321 11.5681 17.1671 11.7634 16.9718C11.9588 16.7764 12.2237 16.6667 12.5 16.6667C12.7763 16.6667 13.0412 16.7764 13.2366 16.9718C13.4319 17.1671 13.5417 17.4321 13.5417 17.7083ZM7.29166 14.5833C7.56793 14.5833 7.83288 14.4736 8.02823 14.2782C8.22358 14.0829 8.33333 13.8179 8.33333 13.5417C8.33333 13.2654 8.22358 13.0004 8.02823 12.8051C7.83288 12.6097 7.56793 12.5 7.29166 12.5C7.01539 12.5 6.75044 12.6097 6.55509 12.8051C6.35974 13.0004 6.25 13.2654 6.25 13.5417C6.25 13.8179 6.35974 14.0829 6.55509 14.2782C6.75044 14.4736 7.01539 14.5833 7.29166 14.5833ZM7.29166 18.75C7.56793 18.75 7.83288 18.6403 8.02823 18.4449C8.22358 18.2496 8.33333 17.9846 8.33333 17.7083C8.33333 17.4321 8.22358 17.1671 8.02823 16.9718C7.83288 16.7764 7.56793 16.6667 7.29166 16.6667C7.01539 16.6667 6.75044 16.7764 6.55509 16.9718C6.35974 17.1671 6.25 17.4321 6.25 17.7083C6.25 17.9846 6.35974 18.2496 6.55509 18.4449C6.75044 18.6403 7.01539 18.75 7.29166 18.75Z" fill="#05564B"/>
</svg>
