<svg width="14" height="15" viewBox="0 0 14 15" fill="none" xmlns="http://www.w3.org/2000/svg">
<path d="M2.08742 14.6318L7 9.36859L11.8871 14.6046C11.9951 14.7277 12.1251 14.8262 12.2695 14.8941C12.4138 14.9621 12.5695 14.9981 12.7271 15C13.0646 15 13.3884 14.8563 13.627 14.6006C13.8657 14.3449 13.9998 13.9981 13.9998 13.6365C14.0028 13.4693 13.9738 13.3032 13.9147 13.1485C13.8556 12.9937 13.7676 12.8535 13.6562 12.7365L8.7054 7.50054L13.6562 2.19637C13.8659 1.97652 13.9889 1.67879 13.9998 1.36462C13.9998 1.00298 13.8657 0.656162 13.627 0.400449C13.3884 0.144736 13.0646 0.00107777 12.7271 0.00107777C12.5649 -0.00613176 12.4031 0.0228735 12.2519 0.0862521C12.1007 0.149631 11.9635 0.245999 11.8489 0.369234L7 5.63249L2.10015 0.382868C1.99261 0.263869 1.86414 0.168865 1.72216 0.103336C1.58017 0.0378079 1.42748 0.0030531 1.2729 0.00107777C0.935358 0.00107777 0.611645 0.144736 0.372969 0.400449C0.134294 0.656162 0.000207075 1.00298 0.000207075 1.36462C-0.00276019 1.53179 0.0261896 1.69785 0.0852799 1.8526C0.14437 2.00736 0.232355 2.14754 0.343833 2.26455L5.2946 7.50054L0.343833 12.8047C0.134075 13.0246 0.0110754 13.3223 0.000207075 13.6365C0.000207075 13.9981 0.134294 14.3449 0.372969 14.6006C0.611645 14.8563 0.935358 15 1.2729 15C1.57834 14.9959 1.87106 14.8636 2.08742 14.6318Z" fill="black"/>
</svg>
