<svg width="29" height="29" viewBox="0 0 29 29" fill="none" xmlns="http://www.w3.org/2000/svg">
<path d="M14.5 2.26562C12.0803 2.26563 9.71488 2.98316 7.70295 4.32749C5.69102 5.67182 4.12291 7.58257 3.19692 9.81811C2.27093 12.0536 2.02864 14.5136 2.50071 16.8868C2.97278 19.26 4.13799 21.44 5.849 23.151C7.56 24.862 9.73996 26.0272 12.1132 26.4993C14.4864 26.9714 16.9464 26.7291 19.1819 25.8031C21.4174 24.8771 23.3282 23.309 24.6725 21.2971C26.0168 19.2851 26.7344 16.9197 26.7344 14.5C26.7308 11.2563 25.4407 8.14658 23.147 5.85296C20.8534 3.55935 17.7437 2.26922 14.5 2.26562ZM14.5 24.0156C12.618 24.0156 10.7782 23.4575 9.21341 22.412C7.64857 21.3664 6.42893 19.8802 5.70871 18.1415C4.9885 16.4027 4.80006 14.4894 5.16722 12.6436C5.53438 10.7977 6.44066 9.10222 7.77144 7.77144C9.10223 6.44065 10.7977 5.53438 12.6436 5.16722C14.4894 4.80005 16.4027 4.98849 18.1415 5.70871C19.8802 6.42892 21.3664 7.64857 22.412 9.2134C23.4575 10.7782 24.0156 12.618 24.0156 14.5C24.0129 17.0229 23.0095 19.4416 21.2256 21.2256C19.4416 23.0095 17.0229 24.0129 14.5 24.0156ZM22.2031 14.5C22.2031 14.8605 22.0599 15.2063 21.805 15.4612C21.55 15.7162 21.2043 15.8594 20.8438 15.8594H14.5C14.1395 15.8594 13.7937 15.7162 13.5388 15.4612C13.2838 15.2063 13.1406 14.8605 13.1406 14.5V8.15625C13.1406 7.79572 13.2838 7.44996 13.5388 7.19503C13.7937 6.94009 14.1395 6.79688 14.5 6.79688C14.8605 6.79688 15.2063 6.94009 15.4612 7.19503C15.7162 7.44996 15.8594 7.79572 15.8594 8.15625V13.1406H20.8438C21.2043 13.1406 21.55 13.2838 21.805 13.5388C22.0599 13.7937 22.2031 14.1395 22.2031 14.5Z" fill="#05564B"/>
</svg>
