<svg width="24" height="27" viewBox="0 0 24 27" fill="none" xmlns="http://www.w3.org/2000/svg">
<path d="M14.0259 0.402159L22.961 4.10723C23.5913 4.36859 24 4.96826 24 5.63177V14.3445C24 17.5585 22.3958 20.5746 19.6927 22.4427L13.9928 26.3819C12.8007 27.2058 11.1993 27.2058 10.0072 26.3819L4.30726 22.4427C1.60422 20.5746 0 17.5585 0 14.3445V5.63177C0 4.96826 0.408681 4.36859 1.039 4.10723L9.97413 0.402158C11.2678 -0.134282 12.7322 -0.134282 14.0259 0.402159Z" fill="#05564B"/>
<path d="M7 14.75L10.0877 18.1318C10.3008 18.3651 10.6743 18.3448 10.8607 18.0895L17.5 9" stroke="white" stroke-width="2" stroke-linecap="round"/>
</svg>
