<svg width="31" height="31" viewBox="0 0 31 31" fill="none" xmlns="http://www.w3.org/2000/svg">
<path d="M2.5835 15.5001L1.41219 14.563L0.662559 15.5001L1.41219 16.4371L2.5835 15.5001ZM14.2085 17.0001C15.0369 17.0001 15.7085 16.3285 15.7085 15.5001C15.7085 14.6717 15.0369 14.0001 14.2085 14.0001V17.0001ZM6.57886 8.10471L1.41219 14.563L3.7548 16.4371L8.92147 9.97879L6.57886 8.10471ZM1.41219 16.4371L6.57886 22.8955L8.92147 21.0214L3.7548 14.563L1.41219 16.4371ZM2.5835 17.0001H14.2085V14.0001H2.5835V17.0001Z" fill="#05564B"/>
<path d="M12.9165 10.5037V8.55509C12.9165 6.93675 12.9165 6.12758 13.3905 5.56809C13.8644 5.0086 14.6626 4.87557 16.2589 4.60952L21.4301 3.74765C24.6732 3.20714 26.2948 2.93688 27.3556 3.83557C28.4165 4.73427 28.4165 6.37818 28.4165 9.66602V21.3338C28.4165 24.6217 28.4165 26.2656 27.3556 27.1643C26.2948 28.063 24.6732 27.7927 21.4301 27.2522L16.2589 26.3903C14.6626 26.1243 13.8644 25.9912 13.3905 25.4317C12.9165 24.8723 12.9165 24.0631 12.9165 22.4447V20.7518" stroke="#05564B" stroke-width="3"/>
</svg>
