<svg width="20" height="16" viewBox="0 0 20 16" fill="none" xmlns="http://www.w3.org/2000/svg">
<path d="M18.75 6.50136H3.925L8.4625 1.77802C8.67467 1.55679 8.77675 1.27157 8.74628 0.985106C8.7158 0.698644 8.55527 0.434407 8.3 0.250523C8.04473 0.0666398 7.71563 -0.0218272 7.3851 0.00458413C7.05456 0.0309955 6.74967 0.170122 6.5375 0.391357L0.2875 6.89136C0.245451 6.94306 0.207849 6.99737 0.175 7.05386C0.175 7.10802 0.175 7.14052 0.0875002 7.19469C0.0308421 7.3189 0.0011764 7.45113 0 7.58469C0.0011764 7.71825 0.0308421 7.85048 0.0875002 7.97469C0.0875002 8.02886 0.0874998 8.06136 0.175 8.11552C0.207849 8.17201 0.245451 8.22632 0.2875 8.27802L6.5375 14.778C6.65503 14.9003 6.8022 14.9987 6.96856 15.0661C7.13491 15.1335 7.31636 15.1683 7.5 15.168C7.79207 15.1685 8.07511 15.0804 8.3 14.9189C8.42657 14.8279 8.5312 14.7162 8.60789 14.5902C8.68458 14.4641 8.73183 14.3262 8.74692 14.1843C8.76202 14.0424 8.74466 13.8994 8.69586 13.7633C8.64705 13.6272 8.56775 13.5008 8.4625 13.3914L3.925 8.66802H18.75C19.0815 8.66802 19.3995 8.55389 19.6339 8.35072C19.8683 8.14756 20 7.87201 20 7.58469C20 7.29737 19.8683 7.02182 19.6339 6.81866C19.3995 6.61549 19.0815 6.50136 18.75 6.50136Z" fill="black"/>
</svg>
