<svg width="24" height="24" viewBox="0 0 24 24" fill="none" xmlns="http://www.w3.org/2000/svg">
<path fill-rule="evenodd" clip-rule="evenodd" d="M12 23.25C5.37258 23.25 0 18.0453 0 11.625C0 5.20469 5.37258 0 12 0C18.6274 0 24 5.20469 24 11.625C24 18.0453 18.6274 23.25 12 23.25ZM12 5.45833C11.4477 5.45833 11 5.90605 11 6.45833C11 7.01062 11.4477 7.45833 12 7.45833H12.0133C12.5656 7.45833 13.0133 7.01062 13.0133 6.45833C13.0133 5.90605 12.5656 5.45833 12.0133 5.45833H12ZM10 10.625C9.44771 10.625 9 11.0727 9 11.625C9 12.1773 9.44771 12.625 10 12.625H11V16.7917C11 17.344 11.4477 17.7917 12 17.7917H14.6667C15.219 17.7917 15.6667 17.344 15.6667 16.7917C15.6667 16.2394 15.219 15.7917 14.6667 15.7917H13V11.625C13 11.0727 12.5523 10.625 12 10.625H10Z" fill="#05564B"/>
</svg>
