<svg width="23" height="21" viewBox="0 0 23 21" fill="none" xmlns="http://www.w3.org/2000/svg">
<path d="M18.3046 13.0633C18.0057 13.3396 17.8677 13.7474 17.9378 14.1354L18.96 19.5729C19.0417 20.0371 18.8462 20.5002 18.4426 20.7665C18.0517 21.0428 17.5343 21.076 17.0973 20.8549L12.0049 18.3019C11.8198 18.2135 11.6243 18.1572 11.43 18.1572H11.1184C11.0034 18.1682 10.9011 18.2135 10.8079 18.2566L5.71432 20.8218C5.46136 20.9433 5.17391 20.9875 4.89796 20.9433C4.20808 20.8107 3.7608 20.1907 3.87463 19.5386L4.89796 14.1011C4.96694 13.7043 4.82897 13.3065 4.53117 13.0191L0.37924 9.15097C0.0343002 8.81941 -0.0921779 8.34307 0.069944 7.9021C0.219418 7.46997 0.6092 7.14947 1.09212 7.07321L6.80663 6.27637C7.24355 6.23216 7.62298 5.97907 7.81845 5.60331L10.3365 0.64101C10.394 0.530491 10.4745 0.429919 10.5676 0.342609L10.67 0.265245C10.7159 0.208881 10.7849 0.165778 10.8551 0.121571L10.9804 0.0773633L11.1759 0H11.6599C12.0969 0.0442076 12.4763 0.297296 12.6718 0.662008L15.2232 5.60331C15.4071 5.96802 15.7636 6.21116 16.1775 6.27637L21.892 7.07321C22.3749 7.13952 22.7785 7.46003 22.9383 7.9021C23.0878 8.34307 22.9613 8.83046 22.6049 9.15097L18.3046 13.0633Z" fill="#05564B"/>
</svg>
