<svg width="20" height="20" viewBox="0 0 20 20" fill="none" xmlns="http://www.w3.org/2000/svg">
<path d="M19.71 18.29L18.29 19.71C18.1026 19.8962 17.8492 20.0008 17.585 20.0008C17.3208 20.0008 17.0674 19.8962 16.88 19.71L5 7.85C4.67481 7.94421 4.33852 7.99465 4 8C3.3633 7.99955 2.73591 7.84711 2.16999 7.55536C1.60407 7.26362 1.11596 6.84099 0.746261 6.32263C0.376559 5.80426 0.135938 5.20513 0.0444057 4.57505C-0.047127 3.94496 0.0130726 3.30213 0.219999 2.7L2.76 5.24L3.29 4.71L4.71 3.29L5.24 2.76L2.7 0.22C3.30213 0.0130733 3.94496 -0.0471263 4.57505 0.0444064C5.20513 0.135939 5.80426 0.376559 6.32263 0.746262C6.84099 1.11596 7.26362 1.60407 7.55536 2.16999C7.84711 2.73591 7.99954 3.3633 8 4C7.99465 4.33852 7.94421 4.67481 7.85 5L19.71 16.88C19.8962 17.0674 20.0008 17.3208 20.0008 17.585C20.0008 17.8492 19.8962 18.1026 19.71 18.29ZM0.289999 16.88C0.103748 17.0674 -0.000793457 17.3208 -0.000793457 17.585C-0.000793457 17.8492 0.103748 18.1026 0.289999 18.29L1.71 19.71C1.89736 19.8962 2.15081 20.0008 2.415 20.0008C2.67918 20.0008 2.93264 19.8962 3.12 19.71L8.59 14.25L5.76 11.42M18 0L14 2V4L11.83 6.17L13.83 8.17L16 6H18L20 2L18 0Z" fill="#05564B"/>
</svg>
