<svg width="15" height="15" viewBox="0 0 15 15" fill="none" xmlns="http://www.w3.org/2000/svg">
<path d="M11.9378 9.33096C11.7428 9.52831 11.6529 9.81961 11.6986 10.0967L12.3652 13.9806C12.4185 14.3122 12.291 14.643 12.0278 14.8332C11.7728 15.0306 11.4354 15.0543 11.1504 14.8964L7.82927 13.0728C7.70854 13.0097 7.58106 12.9694 7.45433 12.9694H7.25112C7.17613 12.9773 7.10939 13.0097 7.04865 13.0404L3.72673 14.8727C3.56176 14.9595 3.37429 14.9911 3.19432 14.9595C2.7444 14.8648 2.4527 14.4219 2.52694 13.9562L3.19432 10.0722C3.23931 9.78882 3.14933 9.50463 2.95511 9.29938L0.247331 6.53641C0.0223697 6.29958 -0.060116 5.95934 0.0456156 5.64436C0.143099 5.3357 0.397305 5.10676 0.71225 5.05229L4.4391 4.48312C4.72405 4.45154 4.97151 4.27077 5.09899 4.00236L6.7412 0.457864C6.7787 0.378922 6.83119 0.307085 6.89193 0.244721L6.95867 0.189461C6.98866 0.149201 7.03365 0.118413 7.0794 0.0868363L7.16113 0.0552595L7.28861 0H7.60431C7.88926 0.0315768 8.13671 0.212354 8.26419 0.472863L9.92815 4.00236C10.0481 4.26287 10.2806 4.43655 10.5505 4.48312L14.2774 5.05229C14.5923 5.09966 14.8555 5.32859 14.9598 5.64436C15.0573 5.95934 14.9748 6.30747 14.7423 6.53641L11.9378 9.33096Z" fill="#FABB05"/>
</svg>
