<svg width="14" height="14" viewBox="0 0 14 14" fill="none" xmlns="http://www.w3.org/2000/svg">
<path d="M13.3983 10.6264C13.2799 11.5262 12.838 12.3522 12.1551 12.95C11.4722 13.5478 10.5951 13.8766 9.6875 13.875C4.41485 13.875 0.125006 9.58514 0.125006 4.31249C0.123379 3.40491 0.452181 2.52777 1.05 1.84489C1.64782 1.16202 2.47377 0.720113 3.3736 0.601706C3.60114 0.573923 3.83157 0.620474 4.03048 0.734412C4.22939 0.848349 4.38612 1.02356 4.47727 1.23389L5.87977 4.36495V4.37292C5.94956 4.53392 5.97838 4.7097 5.96366 4.88456C5.94894 5.05942 5.89115 5.22791 5.79543 5.37499C5.78348 5.39292 5.77086 5.40952 5.75758 5.42612L4.37501 7.06503C4.87239 8.07573 5.92958 9.12362 6.95356 9.62233L8.56989 8.24706C8.58576 8.23372 8.60239 8.2213 8.61969 8.20987C8.76665 8.11186 8.93572 8.05203 9.11161 8.0358C9.2875 8.01956 9.46467 8.04744 9.62708 8.1169L9.63571 8.12089L12.7641 9.52272C12.9748 9.61355 13.1505 9.77014 13.2648 9.96908C13.3791 10.168 13.4259 10.3986 13.3983 10.6264Z" fill="#05564B"/>
</svg>
