<svg width="24" height="24" viewBox="0 0 24 24" fill="none" xmlns="http://www.w3.org/2000/svg">
<path d="M10.429 19.924L13.991 18.412C14.056 18.8499 13.9738 19.297 13.7573 19.6831C13.5408 20.0692 13.2023 20.3726 12.7948 20.5455C12.3873 20.7185 11.9339 20.7513 11.5057 20.6388C11.0776 20.5263 10.6989 20.2749 10.429 19.924ZM15.861 2.094C17.947 3.234 19.513 4.697 20.543 6.481C21.573 8.265 22.058 10.353 22.002 12.729C21.9974 12.9279 21.9139 13.1168 21.77 13.2542C21.6261 13.3916 21.4334 13.4661 21.2345 13.4615C21.0356 13.4569 20.8467 13.3734 20.7093 13.2295C20.572 13.0855 20.4974 12.8929 20.502 12.694C20.552 10.582 20.13 8.766 19.244 7.231C18.358 5.696 16.995 4.423 15.142 3.411C14.9674 3.31552 14.8378 3.15457 14.7818 2.96357C14.7259 2.77256 14.7481 2.56714 14.8435 2.3925C14.939 2.21785 15.1 2.08829 15.291 2.03231C15.482 1.97633 15.6874 1.99852 15.862 2.094M6.71203 6.515C8.08799 5.90058 9.64853 5.8434 11.0658 6.35547C12.483 6.86753 13.6466 7.90899 14.312 9.261L14.41 9.471L15.698 12.362L17.396 13.832C17.489 13.912 17.569 14.006 17.662 14.157L17.721 14.271C17.7876 14.4212 17.824 14.583 17.828 14.7472C17.832 14.9114 17.8037 15.0748 17.7445 15.228C17.6854 15.3813 17.5966 15.5213 17.4832 15.6402C17.3699 15.7591 17.2343 15.8546 17.084 15.921L6.75603 20.49C6.56574 20.5742 6.35742 20.6096 6.14998 20.593C5.94254 20.5763 5.74254 20.5081 5.56813 20.3946C5.39371 20.2811 5.2504 20.1258 5.1512 19.9429C5.05199 19.7599 5.00003 19.5551 5.00003 19.347L4.99903 17.004L3.75703 14.212C3.44454 13.5129 3.27304 12.7589 3.25237 11.9934C3.23169 11.2279 3.36225 10.4658 3.63656 9.75081C3.91087 9.03582 4.32354 8.38197 4.85094 7.82672C5.37834 7.27146 6.0101 6.82571 6.71003 6.515M15.623 5.695C16.59 6.222 17.365 6.989 17.939 7.984C18.513 8.979 18.79 10.034 18.763 11.134C18.7607 11.2325 18.7389 11.3295 18.6991 11.4196C18.6592 11.5097 18.602 11.5911 18.5306 11.6591C18.4593 11.727 18.3753 11.7803 18.2834 11.8158C18.1915 11.8513 18.0935 11.8684 17.995 11.866C17.8965 11.8636 17.7995 11.8419 17.7094 11.802C17.6193 11.7621 17.5379 11.7049 17.47 11.6336C17.402 11.5623 17.3487 11.4783 17.3132 11.3864C17.2777 11.2945 17.2607 11.1965 17.263 11.098C17.283 10.276 17.078 9.493 16.64 8.734C16.202 7.974 15.626 7.404 14.905 7.012C14.7304 6.91678 14.6007 6.75609 14.5446 6.56528C14.4884 6.37446 14.5103 6.16914 14.6055 5.9945C14.7007 5.81985 14.8614 5.69018 15.0523 5.63402C15.2431 5.57785 15.4484 5.59978 15.623 5.695Z" fill="#FF8787"/>
</svg>
